<?xml version="1.0" encoding="UTF-8"?>
<svg xmlns="http://www.w3.org/2000/svg" xmlns:xlink="http://www.w3.org/1999/xlink" width="22pt" height="22pt" viewBox="0 0 22 22" version="1.1">
<g id="surface1">
<path style=" stroke:none;fill-rule:evenodd;fill:rgb(58.431373%,63.137255%,70.588235%);fill-opacity:1;" d="M 15.035156 4.597656 L 15.960938 3.671875 L 18.371094 6.082031 L 17.445312 7.007812 C 17.886719 7.714844 18.21875 8.5 18.410156 9.339844 L 19.722656 9.339844 L 19.722656 11.042969 C 11.621094 11.042969 10.378906 11.042969 2.277344 11.042969 L 2.277344 9.339844 L 3.589844 9.339844 C 3.78125 8.5 4.113281 7.714844 4.554688 7.007812 L 3.628906 6.082031 L 6.039062 3.671875 L 6.964844 4.597656 C 7.671875 4.15625 8.457031 3.824219 9.296875 3.632812 L 9.296875 2.320312 L 12.703125 2.320312 L 12.703125 3.632812 C 13.542969 3.824219 14.328125 4.15625 15.035156 4.597656 Z M 15.035156 4.597656 "/>
<path style=" stroke:none;fill-rule:evenodd;fill:rgb(33.333333%,69.803922%,100%);fill-opacity:1;" d="M 15.027344 11.042969 C 15.027344 8.816406 13.226562 7.015625 11 7.015625 C 8.777344 7.015625 6.972656 8.816406 6.972656 11.042969 Z M 15.027344 11.042969 "/>
<path style=" stroke:none;fill-rule:evenodd;fill:rgb(0%,0%,0%);fill-opacity:1;" d="M 21.570312 10.613281 L 20.152344 10.613281 L 20.152344 9.339844 C 20.152344 9.101562 19.960938 8.910156 19.722656 8.910156 L 18.746094 8.910156 C 18.570312 8.269531 18.3125 7.652344 17.984375 7.074219 L 18.675781 6.382812 C 18.757812 6.304688 18.800781 6.195312 18.800781 6.082031 C 18.800781 5.964844 18.757812 5.855469 18.675781 5.777344 L 16.265625 3.367188 C 16.097656 3.199219 15.828125 3.199219 15.660156 3.367188 L 14.964844 4.058594 C 14.386719 3.726562 13.773438 3.472656 13.132812 3.296875 L 13.132812 2.320312 C 13.132812 2.082031 12.941406 1.890625 12.703125 1.890625 L 9.296875 1.890625 C 9.058594 1.890625 8.867188 2.082031 8.867188 2.320312 L 8.867188 3.296875 C 8.226562 3.472656 7.613281 3.726562 7.03125 4.058594 L 6.339844 3.367188 C 6.171875 3.199219 5.902344 3.199219 5.734375 3.367188 L 3.324219 5.777344 C 3.242188 5.855469 3.199219 5.964844 3.199219 6.082031 C 3.199219 6.195312 3.242188 6.304688 3.324219 6.382812 L 4.015625 7.074219 C 3.6875 7.65625 3.429688 8.269531 3.253906 8.910156 L 2.277344 8.910156 C 2.039062 8.910156 1.847656 9.101562 1.847656 9.339844 L 1.847656 10.613281 L 0.429688 10.613281 C 0.191406 10.613281 0 10.804688 0 11.042969 C 0 11.28125 0.191406 11.472656 0.429688 11.472656 L 9.28125 11.472656 C 9.519531 11.472656 9.710938 11.28125 9.710938 11.042969 C 9.710938 10.804688 9.519531 10.613281 9.28125 10.613281 L 7.429688 10.613281 C 7.640625 8.832031 9.160156 7.445312 11 7.445312 C 12.839844 7.445312 14.359375 8.832031 14.570312 10.613281 L 12.71875 10.613281 C 12.480469 10.613281 12.289062 10.804688 12.289062 11.042969 C 12.289062 11.28125 12.480469 11.472656 12.71875 11.472656 L 21.570312 11.472656 C 21.808594 11.472656 22 11.28125 22 11.042969 C 22 10.804688 21.808594 10.613281 21.570312 10.613281 Z M 11 6.585938 C 8.6875 6.585938 6.78125 8.355469 6.5625 10.613281 L 2.707031 10.613281 L 2.707031 9.769531 L 3.589844 9.769531 C 3.789062 9.769531 3.964844 9.628906 4.007812 9.433594 C 4.1875 8.65625 4.492188 7.917969 4.917969 7.238281 C 5.027344 7.066406 5 6.847656 4.859375 6.703125 L 4.234375 6.082031 L 6.039062 4.277344 L 6.664062 4.902344 C 6.804688 5.042969 7.023438 5.070312 7.195312 4.960938 C 7.875 4.535156 8.613281 4.230469 9.390625 4.050781 C 9.585938 4.007812 9.726562 3.832031 9.726562 3.632812 L 9.726562 2.75 L 12.273438 2.75 L 12.273438 3.632812 C 12.273438 3.832031 12.414062 4.007812 12.609375 4.050781 C 13.386719 4.230469 14.125 4.535156 14.804688 4.960938 C 14.976562 5.070312 15.195312 5.042969 15.335938 4.902344 L 15.960938 4.277344 L 17.765625 6.082031 L 17.140625 6.703125 C 17 6.847656 16.972656 7.066406 17.082031 7.238281 C 17.507812 7.917969 17.8125 8.65625 17.992188 9.433594 C 18.035156 9.628906 18.210938 9.769531 18.410156 9.769531 L 19.292969 9.769531 L 19.292969 10.613281 L 15.4375 10.613281 C 15.21875 8.355469 13.3125 6.585938 11 6.585938 Z M 11 6.585938 "/>
<path style=" stroke:none;fill-rule:evenodd;fill:rgb(0%,0%,0%);fill-opacity:1;" d="M 4.328125 13.917969 L 5.234375 13.917969 C 5.742188 13.917969 6.15625 14.328125 6.15625 14.839844 C 6.15625 15.074219 6.347656 15.269531 6.585938 15.269531 C 6.820312 15.269531 7.015625 15.074219 7.015625 14.839844 C 7.015625 13.855469 6.214844 13.058594 5.234375 13.058594 L 4.328125 13.058594 C 3.34375 13.058594 2.542969 13.855469 2.542969 14.839844 L 2.542969 18.125 C 2.542969 19.109375 3.34375 19.90625 4.328125 19.90625 L 5.234375 19.90625 C 6.214844 19.90625 7.015625 19.109375 7.015625 18.125 C 7.015625 17.890625 6.820312 17.695312 6.585938 17.695312 C 6.347656 17.695312 6.15625 17.890625 6.15625 18.125 C 6.15625 18.636719 5.742188 19.046875 5.234375 19.046875 L 4.328125 19.046875 C 3.816406 19.046875 3.402344 18.636719 3.402344 18.125 L 3.402344 14.839844 C 3.402344 14.328125 3.816406 13.917969 4.328125 13.917969 Z M 4.328125 13.917969 "/>
<path style=" stroke:none;fill-rule:evenodd;fill:rgb(0%,0%,0%);fill-opacity:1;" d="M 13.960938 13.144531 C 13.769531 13.09375 13.570312 13.179688 13.476562 13.347656 L 11.242188 17.335938 L 9.003906 13.347656 C 8.910156 13.179688 8.710938 13.09375 8.519531 13.144531 C 8.332031 13.191406 8.199219 13.363281 8.199219 13.558594 L 8.199219 19.40625 C 8.199219 19.644531 8.390625 19.835938 8.628906 19.835938 C 8.867188 19.835938 9.058594 19.644531 9.058594 19.40625 L 9.058594 15.203125 L 10.867188 18.421875 C 10.941406 18.558594 11.085938 18.640625 11.242188 18.640625 C 11.394531 18.640625 11.539062 18.558594 11.617188 18.421875 L 13.421875 15.203125 L 13.421875 19.40625 C 13.421875 19.644531 13.613281 19.835938 13.851562 19.835938 C 14.089844 19.835938 14.28125 19.644531 14.28125 19.40625 L 14.28125 13.558594 C 14.28125 13.363281 14.148438 13.191406 13.960938 13.144531 Z M 13.960938 13.144531 "/>
<path style=" stroke:none;fill-rule:evenodd;fill:rgb(0%,0%,0%);fill-opacity:1;" d="M 17.433594 16.054688 C 16.792969 16.054688 16.269531 15.53125 16.269531 14.890625 C 16.269531 14.25 16.792969 13.726562 17.433594 13.726562 C 17.808594 13.726562 18.160156 13.910156 18.378906 14.214844 C 18.519531 14.410156 18.785156 14.453125 18.980469 14.316406 C 19.171875 14.175781 19.21875 13.910156 19.078125 13.714844 C 18.699219 13.183594 18.085938 12.867188 17.433594 12.867188 C 16.316406 12.867188 15.410156 13.773438 15.410156 14.890625 C 15.410156 16.003906 16.316406 16.914062 17.433594 16.914062 C 18.074219 16.914062 18.597656 17.433594 18.597656 18.074219 C 18.597656 18.714844 18.074219 19.238281 17.433594 19.238281 C 17 19.238281 16.605469 19 16.402344 18.613281 C 16.292969 18.40625 16.03125 18.324219 15.824219 18.433594 C 15.613281 18.542969 15.53125 18.804688 15.640625 19.015625 C 15.992188 19.683594 16.679688 20.097656 17.433594 20.097656 C 18.546875 20.097656 19.457031 19.191406 19.457031 18.074219 C 19.457031 16.960938 18.546875 16.054688 17.433594 16.054688 Z M 17.433594 16.054688 "/>
<path style=" stroke:none;fill-rule:evenodd;fill:rgb(0%,0%,0%);fill-opacity:1;" d="M 11.429688 11.042969 C 11.429688 10.804688 11.238281 10.613281 11 10.613281 C 10.761719 10.613281 10.570312 10.804688 10.570312 11.042969 C 10.570312 11.277344 10.761719 11.472656 11 11.472656 C 11.238281 11.472656 11.429688 11.277344 11.429688 11.042969 Z M 11.429688 11.042969 "/>
</g>
</svg>
